<svg xmlns="http://www.w3.org/2000/svg" xmlns:xlink="http://www.w3.org/1999/xlink" version="1.1" id="Layer_1" x="0px" y="0px" class="logo" viewBox="0 0 250 318" enable-background="new 0 0 250 318" xml:space="preserve">
<polygon points="58.5,246.2 60,246.2 58.5,244.3" class="style0"/>
<polygon points="42.8,217.7 43.5,217.7 42.8,217" class="style0"/>
<polygon points="13.3,171.6 14.1,171.6 13.3,170.4" class="style0"/>
<polygon points="235.1,132.1 233.4,130.7 233.4,132.1" class="style0"/>
<polygon points="164.5,144 164.5,101.7 190.2,101.7 190.2,157.8 206.8,157.8 206.8,117.8 218.2,117.8 219.2,117.8 219.2,101.2 206.8,101.2 196.4,101.2 190.6,101.2 190.6,86.6 164.5,86.6 164.5,86.5 147.9,86.5 147.9,87.4 147.9,144" class="style0"/>
<polygon points="219.2,118 219.2,118.7 219.2,132.5 233.4,132.5 233.4,231.5 219.6,231.5 219.6,274.7 204.9,274.7 204.9,303.3 88,303.3 88,274.7 72.7,274.7 72.7,246.2 60,246.2 58.5,246.2 58.5,244.3 58.5,217.7 43.5,217.7 42.8,217.7 42.8,217 42.8,185.4 29,185.4 29,171.6 14.1,171.6 13.3,171.6 13.3,170.4 13.3,144 41.8,144 41.8,144 41.8,129.3 13.3,129.3 1,129.3 0,129.3 0,172 13.3,172 13.3,186.3 28.5,186.3 28.5,217.7 42.3,217.7 42.3,246.7 58.5,246.7 58.5,274.7 71.8,274.7 71.8,303.3 71.8,305.6 71.8,318 221.5,318 221.5,303.3 221.5,274.7 236.3,274.7 236.3,232 250,232 250,132.1 235.1,132.1 233.4,132.1 233.4,130.7 233.4,118" class="style0"/>
<polygon points="118.9,145.7 118.9,86.3 146.8,86.3 147.8,86.3 147.8,72 118.9,72 118.9,15.4 102.2,15.4 102.2,17.4 102.2,145.7" class="style0"/>
<polygon points="56.6,158.7 56.6,206.3 73.2,206.3 73.2,15.6 71.3,15.6 56.6,15.6 56.6,144 42.3,144 42.3,144.4 42.3,158.7" class="style0"/>
<polygon points="73.7,0.9 73.7,14.2 73.7,15.6 100.7,15.6 102.2,15.6 102.2,0.9" class="style0"/>
</svg>
